<svg xmlns="http://www.w3.org/2000/svg" viewBox="0 0 64 64"><defs><radialGradient id="tile-skull-bg" cx=".4" cy=".3" r=".9"><stop offset="0" stop-color="#8e2230"/><stop offset="1" stop-color="#3a0f1c"/></radialGradient><linearGradient id="tile-skull-bone" x1="0" y1="0" x2="0" y2="1"><stop offset="0" stop-color="#fff8e6"/><stop offset="1" stop-color="#d9c79a"/></linearGradient></defs><circle cx="32" cy="32" r="29" fill="url(#tile-skull-bg)" stroke="#2b1b17" stroke-width="3.4"/><circle cx="32" cy="32" r="25.5" fill="none" stroke="#e8b84a" stroke-width="1.6"/><g fill="#e8b84a" stroke="#2b1b17" stroke-width="1"><circle cx="32" cy="5.6" r="1.8"/><circle cx="32" cy="58.4" r="1.8"/><circle cx="5.6" cy="32" r="1.8"/><circle cx="58.4" cy="32" r="1.8"/></g><g fill="none" stroke="#e8b84a" stroke-width="1.5" stroke-linecap="round" opacity=".9"><path d="M9 22Q6 18 10 16Q13 15 13.5 18Q15 14 18 16"/><path d="M55 22Q58 18 54 16Q51 15 50.5 18Q49 14 46 16"/></g><g stroke="#2b1b17" stroke-width="1.8" stroke-linejoin="round" stroke-linecap="round"><g fill="url(#tile-skull-bone)"><path d="M13.5 41.5L46 50.5M50.5 41.5L18 50.5" fill="none" stroke="#2b1b17" stroke-width="6.4"/><path d="M13.5 41.5L46 50.5M50.5 41.5L18 50.5" fill="none" stroke="#e9dcb8" stroke-width="3.2"/><circle cx="12.5" cy="40" r="3"/><circle cx="14.6" cy="43.6" r="2.6"/><circle cx="51.5" cy="40" r="3"/><circle cx="49.4" cy="43.6" r="2.6"/><circle cx="47.2" cy="50.6" r="2.8"/><circle cx="44.2" cy="52.4" r="2.2"/><circle cx="16.8" cy="50.6" r="2.8"/><circle cx="19.8" cy="52.4" r="2.2"/></g><path d="M32 9C20 9 13.5 17 13.5 26.5C13.5 32.5 16.5 36.5 20.5 38.6V43.5C20.5 45.3 21.8 46.6 23.6 46.6H40.4C42.2 46.6 43.5 45.3 43.5 43.5V38.6C47.5 36.5 50.5 32.5 50.5 26.5C50.5 17 44 9 32 9Z" fill="url(#tile-skull-bone)"/><path d="M19 29.4C19 25.4 22 22.4 25.8 22.4C29.4 22.4 30.8 26 30.8 29.4C30.8 33.2 28.2 35.4 24.8 35.4C21.4 35.4 19 33.2 19 29.4ZM45 29.4C45 25.4 42 22.4 38.2 22.4C34.6 22.4 33.2 26 33.2 29.4C33.2 33.2 35.8 35.4 39.2 35.4C42.6 35.4 45 33.2 45 29.4Z" fill="#2b1b17"/><path d="M32 36.6L29.2 42H34.8Z" fill="#2b1b17"/><path d="M26 42V46.4M32 43.6V46.6M38 42V46.4" fill="none" stroke-width="1.4"/></g><path d="M32 12.4C29.6 15.6 30.6 17.6 32 19.2C33.4 17.6 34.4 15.6 32 12.4Z" fill="#e8b84a" stroke="#2b1b17" stroke-width="1.2"/><circle cx="25" cy="29" r="2.4" fill="#ff3b2a"/><circle cx="39" cy="29" r="2.4" fill="#ff3b2a"/><circle cx="24.3" cy="28.2" r=".8" fill="#ffd0c8"/><circle cx="38.3" cy="28.2" r=".8" fill="#ffd0c8"/><path d="M19 17Q23 11.5 30 10.6" fill="none" stroke="#fffdf4" stroke-width="2.2" stroke-linecap="round" opacity=".85"/><g stroke="#2b1b17" stroke-width="1.2" stroke-linejoin="round"><path d="M32 52.4L35 55.4L32 58.4L29 55.4Z" fill="#e01e2f"/><circle cx="32" cy="55.4" r="1.2" fill="#e8b84a"/></g></svg>
