<svg xmlns="http://www.w3.org/2000/svg" viewBox="0 0 64 64"><g fill="#f2aa24" stroke="#2b1b17" stroke-width="3.6"><circle cx="32" cy="8.5" r="8"/><circle cx="45.8" cy="13" r="8"/><circle cx="54.3" cy="24.7" r="8"/><circle cx="54.3" cy="39.3" r="8"/><circle cx="45.8" cy="51" r="8"/><circle cx="32" cy="55.5" r="8"/><circle cx="18.2" cy="51" r="8"/><circle cx="9.7" cy="39.3" r="8"/><circle cx="9.7" cy="24.7" r="8"/><circle cx="18.2" cy="13" r="8"/><circle cx="32" cy="32" r="24" stroke="none"/></g><g fill="#f2aa24"><circle cx="32" cy="8.5" r="8"/><circle cx="45.8" cy="13" r="8"/><circle cx="54.3" cy="24.7" r="8"/><circle cx="54.3" cy="39.3" r="8"/><circle cx="45.8" cy="51" r="8"/><circle cx="32" cy="55.5" r="8"/><circle cx="18.2" cy="51" r="8"/><circle cx="9.7" cy="39.3" r="8"/><circle cx="9.7" cy="24.7" r="8"/><circle cx="18.2" cy="13" r="8"/><circle cx="32" cy="32" r="24"/></g><g fill="none" stroke="#f9c142" stroke-width="1.4"><circle cx="32" cy="8.5" r="6.4"/><circle cx="45.8" cy="13" r="6.4"/><circle cx="54.3" cy="24.7" r="6.4"/><circle cx="54.3" cy="39.3" r="6.4"/><circle cx="45.8" cy="51" r="6.4"/><circle cx="32" cy="55.5" r="6.4"/><circle cx="18.2" cy="51" r="6.4"/><circle cx="9.7" cy="39.3" r="6.4"/><circle cx="9.7" cy="24.7" r="6.4"/><circle cx="18.2" cy="13" r="6.4"/></g><circle cx="32" cy="32" r="21.5" fill="#f2aa24" stroke="#7a3f08" stroke-width="1.6"/><circle cx="30.98" cy="30.3" r="16.77" fill="#f8be3f" stroke="none"/><circle cx="29.31" cy="27.51" r="9.03" fill="#ffd35a" stroke="none"/><circle cx="32" cy="32" r="19" fill="none" stroke="#7a3f08" stroke-width="1" opacity=".55"/><circle cx="32" cy="32" r="15" fill="#ffd35a" stroke="#7a3f08" stroke-width="2.2"/><circle cx="32" cy="32" r="12" fill="none" stroke="#7a3f08" stroke-width="1" opacity=".6"/><rect x="26.5" y="26.5" width="11" height="11" fill="#b8650c" stroke="#7a3f08" stroke-width="1.8"/><g stroke="#7a3f08" stroke-width="1.8" stroke-linecap="round"><path d="M32 15.5V21M32 43V48.5M15.5 32H21M43 32H48.5"/></g><path d="M12 22A21 21 0 0 1 22 12" fill="none" stroke="#fff0a0" stroke-width="2.2" stroke-linecap="round" opacity=".75"/></svg>