<svg xmlns="http://www.w3.org/2000/svg" viewBox="0 0 64 64"><defs><radialGradient id="tile-purple-g" cx=".38" cy=".3" r=".85"><stop offset="0" stop-color="#b98be8"/><stop offset=".6" stop-color="#8f58cf"/><stop offset="1" stop-color="#53288a"/></radialGradient></defs><g fill="#53288a" stroke="#2b1b17" stroke-width="3.6"><circle cx="32" cy="8.5" r="8"/><circle cx="45.8" cy="13" r="8"/><circle cx="54.3" cy="24.7" r="8"/><circle cx="54.3" cy="39.3" r="8"/><circle cx="45.8" cy="51" r="8"/><circle cx="32" cy="55.5" r="8"/><circle cx="18.2" cy="51" r="8"/><circle cx="9.7" cy="39.3" r="8"/><circle cx="9.7" cy="24.7" r="8"/><circle cx="18.2" cy="13" r="8"/><circle cx="32" cy="32" r="24" stroke="none"/></g><g fill="#53288a"><circle cx="32" cy="8.5" r="8"/><circle cx="45.8" cy="13" r="8"/><circle cx="54.3" cy="24.7" r="8"/><circle cx="54.3" cy="39.3" r="8"/><circle cx="45.8" cy="51" r="8"/><circle cx="32" cy="55.5" r="8"/><circle cx="18.2" cy="51" r="8"/><circle cx="9.7" cy="39.3" r="8"/><circle cx="9.7" cy="24.7" r="8"/><circle cx="18.2" cy="13" r="8"/><circle cx="32" cy="32" r="24"/></g><g fill="none" stroke="#8f58cf" stroke-width="1.4" opacity=".9"><circle cx="32" cy="8.5" r="6.4"/><circle cx="45.8" cy="13" r="6.4"/><circle cx="54.3" cy="24.7" r="6.4"/><circle cx="54.3" cy="39.3" r="6.4"/><circle cx="45.8" cy="51" r="6.4"/><circle cx="32" cy="55.5" r="6.4"/><circle cx="18.2" cy="51" r="6.4"/><circle cx="9.7" cy="39.3" r="6.4"/><circle cx="9.7" cy="24.7" r="6.4"/><circle cx="18.2" cy="13" r="6.4"/></g><circle cx="32" cy="32" r="21.5" fill="url(#tile-purple-g)" stroke="#3a1a63" stroke-width="1.6"/><circle cx="32" cy="32" r="19" fill="none" stroke="#3a1a63" stroke-width="1" opacity=".55"/><g fill="#8f58cf" stroke="#3a1a63" stroke-width="2.6"><circle cx="32" cy="22.5" r="7.6"/><circle cx="41" cy="29.1" r="7.6"/><circle cx="37.6" cy="39.7" r="7.6"/><circle cx="26.4" cy="39.7" r="7.6"/><circle cx="23" cy="29.1" r="7.6"/><circle cx="32" cy="32" r="9.5" stroke="none"/></g><g fill="#8f58cf"><circle cx="32" cy="22.5" r="7.6"/><circle cx="41" cy="29.1" r="7.6"/><circle cx="37.6" cy="39.7" r="7.6"/><circle cx="26.4" cy="39.7" r="7.6"/><circle cx="23" cy="29.1" r="7.6"/><circle cx="32" cy="32" r="10"/></g><g fill="#b98be8" opacity=".55"><circle cx="30.4" cy="20.7" r="3.4"/><circle cx="39.4" cy="27.3" r="3.4"/><circle cx="36" cy="37.9" r="3.4"/><circle cx="24.8" cy="37.9" r="3.4"/><circle cx="21.4" cy="27.3" r="3.4"/></g><path d="M36 32L40.2 32M34.8 34.8L37.8 37.8M32 36L32 40.2M29.2 34.8L26.2 37.8M28 32L23.8 32M29.2 29.2L26.2 26.2M32 28L32 23.8M34.8 29.2L37.8 26.2" stroke="#3a1a63" stroke-width="1.4" stroke-linecap="round"/><circle cx="32" cy="32" r="2" fill="#3a1a63"/><path d="M12 22A21 21 0 0 1 22 12" fill="none" stroke="#dcc3f6" stroke-width="2.2" stroke-linecap="round" opacity=".75"/></svg>